<?xml version="1.0" encoding="iso-8859-1"?>
<!-- Uploaded to: SVG Repo, www.svgrepo.com, Generator: SVG Repo Mixer Tools -->
<!DOCTYPE svg PUBLIC "-//W3C//DTD SVG 1.1//EN" "http://www.w3.org/Graphics/SVG/1.1/DTD/svg11.dtd">
<svg fill="#000000" height="800px" width="800px" version="1.1" id="Capa_1" xmlns="http://www.w3.org/2000/svg" xmlns:xlink="http://www.w3.org/1999/xlink" 
	 viewBox="0 0 395 395" xml:space="preserve">
<g>
	<path d="M313.002,0H82C36.785,0,0,36.784,0,81.998v230.993C0,358.211,36.785,395,82,395h231.002
		C358.216,395,395,358.211,395,312.991V81.998C395,36.784,358.216,0,313.002,0z M380,312.991C380,349.94,349.944,380,313.002,380H82
		c-36.944,0-67-30.06-67-67.009V81.998C15,45.056,45.056,15,82,15h231.002C349.944,15,380,45.056,380,81.998V312.991z"/>
	<path d="M285.273,137.172c19.24,0,34.846-15.59,34.846-34.83c0-19.241-15.605-34.842-34.846-34.842
		c-19.236,0-34.842,15.601-34.842,34.842C250.432,121.582,266.037,137.172,285.273,137.172z"/>
	<path d="M344.196,227.304c-2.772-36.906-7.223-56.038-15.873-68.239c-11.135-15.704-28.06-17.02-43.05-17.02
		c-14.989,0-31.914,1.315-43.048,17.02c-8.648,12.199-13.099,31.331-15.873,68.238c-0.458,6.087,4.107,11.393,10.194,11.851
		c0.281,0.021,0.561,0.031,0.84,0.031c5.729,0,10.574-4.42,11.011-10.225c1.683-22.39,4.044-37.762,7.399-47.725v46.257
		c0,2.321,0.277,4.576,0.784,6.743V327.5c0,7.122,5.773,12.896,12.896,12.896c7.122,0,12.896-5.773,12.896-12.896v-70.675
		c0.955,0.093,1.922,0.144,2.901,0.144c0.982,0,1.953-0.051,2.911-0.145V327.5c0,7.122,5.773,12.896,12.896,12.896
		c7.122,0,12.895-5.773,12.895-12.896v-93.307c0.501-2.154,0.774-4.395,0.774-6.701v-46.268c3.359,9.963,5.719,25.338,7.401,47.735
		c0.457,6.088,5.763,10.659,11.851,10.194C340.089,238.697,344.653,233.392,344.196,227.304z"/>
	<path d="M109.727,137.172c19.238,0,34.846-15.59,34.846-34.83c0-19.241-15.607-34.842-34.846-34.842
		c-19.238,0-34.846,15.601-34.846,34.842C74.881,121.582,90.488,137.172,109.727,137.172z"/>
	<path d="M152.775,159.065c-11.134-15.705-28.059-17.02-43.049-17.02c-14.989,0-31.914,1.315-43.049,17.02
		c-8.65,12.2-13.101,31.333-15.874,68.239c-0.457,6.088,4.106,11.394,10.194,11.851c6.088,0.47,11.393-4.106,11.851-10.194
		c1.683-22.401,4.042-37.794,7.401-47.758v33.339l-10.978,49.316c-0.214,0.96,0.021,1.964,0.635,2.732
		c0.615,0.767,1.545,1.213,2.528,1.213h8.587V327.5c0,7.122,5.773,12.896,12.896,12.896c7.122,0,12.896-5.773,12.896-12.896v-59.698
		h5.811V327.5c0,7.122,5.773,12.896,12.896,12.896c7.122,0,12.895-5.773,12.895-12.896v-59.698h8.601c0.007,0,0.015,0.001,0.02,0
		c1.79,0,3.241-1.45,3.241-3.24c0-0.369-0.063-0.724-0.176-1.055l-10.898-48.956v-33.346c3.358,9.964,5.716,25.356,7.399,47.755
		c0.437,5.806,5.282,10.225,11.011,10.225c0.277,0,0.559-0.01,0.84-0.031c6.088-0.457,10.651-5.763,10.194-11.851
		C165.874,190.396,161.424,171.265,152.775,159.065z"/>
	<path d="M197.5,61.241c-5.669,0-10.264,4.595-10.264,10.264v251.993c0,5.669,4.595,10.264,10.264,10.264
		s10.264-4.595,10.264-10.264V71.505C207.764,65.836,203.169,61.241,197.5,61.241z"/>
</g>
</svg>